<svg width="19" height="19" viewBox="0 0 19 19" fill="none" xmlns="http://www.w3.org/2000/svg">
<path d="M9.4834 0.392349C8.3015 0.392349 7.13118 0.625141 6.03925 1.07743C4.94732 1.52973 3.95516 2.19266 3.11944 3.02839C1.43161 4.71622 0.483398 7.0054 0.483398 9.39235C0.483398 11.7793 1.43161 14.0685 3.11944 15.7563C3.95516 16.592 4.94732 17.255 6.03925 17.7073C7.13118 18.1596 8.3015 18.3923 9.4834 18.3923C11.8703 18.3923 14.1595 17.4441 15.8474 15.7563C17.5352 14.0685 18.4834 11.7793 18.4834 9.39235C18.4834 8.21045 18.2506 7.04013 17.7983 5.9482C17.346 4.85627 16.6831 3.86412 15.8474 3.02839C15.0116 2.19266 14.0195 1.52973 12.9275 1.07743C11.8356 0.625141 10.6653 0.392349 9.4834 0.392349ZM13.2634 13.1723L8.5834 10.2923V4.89235H9.9334V9.57235L13.9834 12.0023L13.2634 13.1723Z" fill="#F8F8F8"/>
</svg>
