<svg width="152" height="26" viewBox="0 0 152 26" fill="none" xmlns="http://www.w3.org/2000/svg">
<path fill-rule="evenodd" clip-rule="evenodd" d="M24.0563 2.33001C24.7898 0.831649 26.9108 0.791152 27.7011 2.26036L35.3416 16.4653C35.8554 17.4204 35.4976 18.6111 34.5425 19.1248C33.5874 19.6386 32.3967 19.2808 31.883 18.3257L25.9751 7.34209L17.4367 24.7823C16.9598 25.7563 15.7837 26.1593 14.8096 25.6825C13.8356 25.2056 13.4326 24.0294 13.9095 23.0554L24.0563 2.33001Z" fill="white"/>
<path fill-rule="evenodd" clip-rule="evenodd" d="M17.4672 15.807L19.657 20.1866L21.8431 15.7771L19.6533 11.3975L17.4672 15.807ZM16.2106 13.2938L13.0271 6.92666L6.86815 18.7383C6.36674 19.6999 5.18072 20.0729 4.21911 19.5715C3.2575 19.0701 2.88444 17.8841 3.38585 16.9225L11.2453 1.84958C12.0186 0.366583 14.1469 0.384696 14.8948 1.88059L18.3967 8.88433L16.2106 13.2938ZM21.9622 24.797L20.7869 22.4463L20.9895 22.5467L23.0997 18.2903L25.4749 23.0407C25.9599 24.0107 25.5667 25.1902 24.5967 25.6752C23.6267 26.1602 22.4472 25.767 21.9622 24.797Z" fill="white"/>
<path d="M5.20901 23.4821C5.20901 24.808 4.13415 25.8829 2.80824 25.8829C1.48233 25.8829 0.407471 24.808 0.407471 23.4821C0.407471 22.1562 1.48233 21.0814 2.80824 21.0814C4.13415 21.0814 5.20901 22.1562 5.20901 23.4821Z" fill="white"/>
<path d="M38.8894 23.4821C38.8894 24.808 37.8145 25.8829 36.4886 25.8829C35.1627 25.8829 34.0879 24.808 34.0879 23.4821C34.0879 22.1562 35.1627 21.0814 36.4886 21.0814C37.8145 21.0814 38.8894 22.1562 38.8894 23.4821Z" fill="white"/>
<path d="M46.6726 5.59668H49.4656L52.6394 15.4893L55.8132 5.59668H58.6062L53.7722 19.8154H51.5066L46.6726 5.59668ZM44.9734 5.59668H47.864L48.4011 16.4951V19.8154H44.9734V5.59668ZM57.4148 5.59668H60.3152V19.8154H56.8777V16.4951L57.4148 5.59668ZM72.0925 5.59668V8.24316H65.9109V19.8154H62.4929V5.59668H72.0925ZM83.2449 5.59668V8.24316H77.0632V19.8154H73.6453V5.59668H83.2449ZM91.78 5.59668V19.8154H88.3523V5.59668H91.78ZM96.0574 5.59668V8.24316H84.1726V5.59668H96.0574ZM100.911 5.59668V19.8154H97.4929V5.59668H100.911ZM109.114 5.59668L104.007 14.1904H100.315L99.905 11.0947H102.239L104.973 5.59668H109.114ZM105.559 19.8154L102.229 13.5947L104.719 11.2998L109.602 19.8154H105.559ZM121.468 8.58496L118.001 19.8154H114.319L119.544 5.59668H121.878L121.468 8.58496ZM124.339 19.8154L120.862 8.58496L120.413 5.59668H122.776L128.03 19.8154H124.339ZM124.202 14.5127V17.1592H116.907V14.5127H124.202ZM138.655 5.59668V8.24316H132.473V19.8154H129.055V5.59668H138.655ZM144.729 14.4541L148.089 5.59668H151.712L146.917 16.876C146.734 17.2926 146.523 17.6898 146.282 18.0674C146.048 18.445 145.768 18.7803 145.442 19.0732C145.123 19.3662 144.746 19.5973 144.309 19.7666C143.873 19.9359 143.362 20.0205 142.776 20.0205C142.633 20.0205 142.457 20.0173 142.249 20.0107C142.047 20.0107 141.871 20.0075 141.721 20.001L141.663 17.3447C141.747 17.3643 141.865 17.3773 142.014 17.3838C142.164 17.3838 142.272 17.3838 142.337 17.3838C142.727 17.3838 143.037 17.3382 143.264 17.2471C143.492 17.1494 143.671 17.0062 143.802 16.8174C143.938 16.6221 144.055 16.3747 144.153 16.0752L144.729 14.4541ZM142.825 5.59668L145.735 11.7686L146.848 15.7139H144.387L139.182 5.59668H142.825Z" fill="white"/>
</svg>
