<svg width="180" height="117" viewBox="0 0 180 117" fill="none" xmlns="http://www.w3.org/2000/svg">
<path fill-rule="evenodd" clip-rule="evenodd" d="M110.618 7.36437C114.049 0.389726 123.97 0.201215 127.666 7.04019L163.405 73.1623C165.808 77.6081 164.135 83.1507 159.667 85.542C155.2 87.9333 149.63 86.2678 147.227 81.822L119.593 30.695L79.6545 111.877C77.424 116.411 71.9224 118.287 67.3664 116.067C62.8104 113.847 60.9253 108.372 63.1558 103.838L110.618 7.36437Z" fill="white"/>
<path fill-rule="evenodd" clip-rule="evenodd" d="M79.7973 70.098L90.0401 90.4844L100.266 69.959L90.0228 49.5725L79.7973 70.098ZM73.9195 58.3993L59.0283 28.7612L30.2199 83.7426C27.8746 88.2188 22.327 89.9553 17.829 87.6213C13.3311 85.2873 11.5861 79.7666 13.9314 75.2904L50.6941 5.12805C54.3111 -1.77509 64.2664 -1.69078 67.7649 5.27241L84.145 37.8739L73.9195 58.3993ZM100.823 111.945L95.325 101.003L96.2729 101.471L106.143 81.6576L117.253 103.77C119.522 108.285 117.683 113.775 113.146 116.033C108.608 118.291 103.091 116.46 100.823 111.945Z" fill="white"/>
<path d="M22.4593 105.825C22.4593 111.997 17.4316 117 11.2297 117C5.02769 117 0 111.997 0 105.825C0 99.6528 5.02769 94.6494 11.2297 94.6494C17.4316 94.6494 22.4593 99.6528 22.4593 105.825Z" fill="white"/>
<path d="M180 105.825C180 111.997 174.972 117 168.77 117C162.568 117 157.541 111.997 157.541 105.825C157.541 99.6528 162.568 94.6494 168.77 94.6494C174.972 94.6494 180 99.6528 180 105.825Z" fill="white"/>
</svg>
