<svg width="12" height="15" viewBox="0 0 12 15" fill="none" xmlns="http://www.w3.org/2000/svg">
<path d="M9.03983 5.41041V4.03386C9.03983 2.1067 7.52563 0.592499 5.59847 0.592499C3.6713 0.592499 2.1571 2.1067 2.1571 4.03386V5.41041C0.98704 5.41041 0.0922852 6.30516 0.0922852 7.47522V12.2931C0.0922852 13.4632 0.98704 14.358 2.1571 14.358H9.03983C10.2099 14.358 11.1046 13.4632 11.1046 12.2931V7.47522C11.1046 6.30516 10.2099 5.41041 9.03983 5.41041ZM3.53365 4.03386C3.53365 2.8638 4.4284 1.96904 5.59847 1.96904C6.76853 1.96904 7.66328 2.8638 7.66328 4.03386V5.41041H3.53365V4.03386Z" fill="#808080"/>
</svg>
