<svg width="19" height="39" viewBox="0 0 19 39" fill="none" xmlns="http://www.w3.org/2000/svg">
<path d="M4.34602 19.1482L17.0426 3.4792C17.1471 3.35293 17.2297 3.20302 17.2857 3.03814C17.3417 2.87326 17.3699 2.69668 17.3686 2.51864C17.3674 2.34059 17.3368 2.1646 17.2785 2.00086C17.2203 1.83712 17.1356 1.68888 17.0293 1.56471C16.923 1.44054 16.7973 1.34291 16.6594 1.27747C16.5216 1.21203 16.3742 1.18008 16.226 1.18347C16.0777 1.18686 15.9315 1.22552 15.7958 1.29722C15.6601 1.36891 15.5376 1.47221 15.4353 1.60115L1.97924 18.2092C1.77558 18.4606 1.66162 18.7975 1.66162 19.1482C1.66162 19.4989 1.77558 19.8358 1.97924 20.0872L15.4353 36.6952C15.5376 36.8242 15.6601 36.9275 15.7958 36.9992C15.9315 37.0709 16.0777 37.1095 16.226 37.1129C16.3742 37.1163 16.5216 37.0844 16.6594 37.0189C16.7973 36.9535 16.923 36.8559 17.0293 36.7317C17.1356 36.6075 17.2203 36.4593 17.2785 36.2955C17.3368 36.1318 17.3674 35.9558 17.3686 35.7778C17.3699 35.5997 17.3417 35.4231 17.2857 35.2583C17.2297 35.0934 17.1471 34.9435 17.0426 34.8172L4.34602 19.1482Z" fill="black" stroke="black" stroke-width="2"/>
</svg>
