<svg width="23" height="22" viewBox="0 0 23 22" fill="none" xmlns="http://www.w3.org/2000/svg">
<circle cx="11.3149" cy="11.117" r="10.7915" fill="#4163CF"/>
<path d="M13.9003 11.117L10.0063 6.67052C9.97422 6.63469 9.94887 6.59215 9.93171 6.54536C9.91454 6.49857 9.9059 6.44846 9.90628 6.39794C9.90665 6.34741 9.91605 6.29747 9.93391 6.25101C9.95177 6.20454 9.97775 6.16247 10.0103 6.12724C10.0429 6.092 10.0815 6.0643 10.1238 6.04573C10.1661 6.02716 10.2113 6.01809 10.2567 6.01905C10.3022 6.02001 10.347 6.03098 10.3887 6.05133C10.4303 6.07167 10.4679 6.10099 10.4992 6.13758L14.6262 10.8505C14.6887 10.9218 14.7236 11.0174 14.7236 11.117C14.7236 11.2165 14.6887 11.3121 14.6262 11.3834L10.4992 16.0964C10.4679 16.133 10.4303 16.1623 10.3887 16.1826C10.347 16.203 10.3022 16.2139 10.2567 16.2149C10.2113 16.2159 10.1661 16.2068 10.1238 16.1882C10.0815 16.1697 10.0429 16.1419 10.0103 16.1067C9.97775 16.0715 9.95177 16.0294 9.93391 15.9829C9.91605 15.9365 9.90665 15.8865 9.90628 15.836C9.9059 15.7855 9.91454 15.7354 9.93171 15.6886C9.94887 15.6418 9.97422 15.5993 10.0063 15.5634L13.9003 11.117Z" fill="black" stroke="white"/>
</svg>
