<svg width="23" height="24" viewBox="0 0 23 24" fill="none" xmlns="http://www.w3.org/2000/svg">
<path d="M20.9466 23.2479L13.0081 15.3094C12.3781 15.8134 11.6535 16.2124 10.8345 16.5064C10.0154 16.8004 9.14388 16.9475 8.21982 16.9475C5.93068 16.9475 3.99351 16.1544 2.40833 14.5684C0.823148 12.9824 0.0301369 11.0452 0.0292969 8.75693C0.0292969 6.46778 0.822308 4.53062 2.40833 2.94544C3.99435 1.36026 5.93152 0.567246 8.21982 0.566406C10.509 0.566406 12.4466 1.35942 14.0326 2.94544C15.6186 4.53146 16.4112 6.46863 16.4103 8.75693C16.4103 9.68099 16.2633 10.5525 15.9693 11.3716C15.6753 12.1907 15.2763 12.9152 14.7722 13.5452L22.7108 21.4837L20.9466 23.2479ZM8.21982 14.4273C9.79492 14.4273 11.134 13.8762 12.237 12.7741C13.34 11.6719 13.891 10.3329 13.8902 8.75693C13.8902 7.18183 13.3391 5.84321 12.237 4.74105C11.1348 3.6389 9.79576 3.08741 8.21982 3.08657C6.64472 3.08657 5.3061 3.63806 4.20395 4.74105C3.10179 5.84405 2.5503 7.18267 2.54946 8.75693C2.54946 10.332 3.10095 11.6711 4.20395 12.7741C5.30694 13.8771 6.64556 14.4281 8.21982 14.4273Z" fill="black"/>
</svg>
