<svg width="13" height="15" viewBox="0 0 13 15" fill="none" xmlns="http://www.w3.org/2000/svg">
<path d="M2.73949 4.37802C2.73949 5.36093 3.12995 6.30359 3.82497 6.99862C4.52 7.69364 5.46266 8.0841 6.44557 8.0841C7.42848 8.0841 8.37114 7.69364 9.06617 6.99862C9.76119 6.30359 10.1517 5.36093 10.1517 4.37802C10.1517 3.3951 9.76119 2.45245 9.06617 1.75742C8.37114 1.0624 7.42848 0.671936 6.44557 0.671936C5.46266 0.671936 4.52 1.0624 3.82497 1.75742C3.12995 2.45245 2.73949 3.3951 2.73949 4.37802ZM11.74 14.4374H0.621726C0.481309 14.4374 0.346644 14.3816 0.247355 14.2823C0.148065 14.183 0.0922852 14.0484 0.0922852 13.9079V12.3196C0.0922852 11.6175 0.371186 10.9442 0.867633 10.4478C1.36408 9.95132 2.03741 9.67242 2.73949 9.67242H10.1517C10.8537 9.67242 11.5271 9.95132 12.0235 10.4478C12.52 10.9442 12.7989 11.6175 12.7989 12.3196V13.9079C12.7989 14.0484 12.7431 14.183 12.6438 14.2823C12.5445 14.3816 12.4098 14.4374 12.2694 14.4374H11.74Z" fill="#808080"/>
</svg>
