<svg width="18" height="19" viewBox="0 0 18 19" fill="none" xmlns="http://www.w3.org/2000/svg">
<path d="M16.0067 10.6519C16.0067 10.4729 15.9442 10.3012 15.833 10.1746C15.7217 10.0481 15.5709 9.97693 15.4136 9.97693H13.0415C12.8843 9.97693 12.7334 10.0481 12.6222 10.1746C12.511 10.3012 12.4485 10.4729 12.4485 10.6519V16.7269H11.2625V2.10193C11.2625 1.44673 11.2609 1.02193 11.2245 0.710535C11.1897 0.418035 11.1336 0.326235 11.0885 0.274935C11.0434 0.223635 10.9628 0.159735 10.7058 0.120135C10.4314 0.0787349 10.059 0.0769348 9.4834 0.0769348C8.90777 0.0769348 8.53456 0.0787349 8.26098 0.120135C8.004 0.159735 7.92335 0.223635 7.87828 0.274935C7.83321 0.326235 7.77707 0.418035 7.74228 0.710535C7.70591 1.02283 7.70433 1.44673 7.70433 2.10193V16.7269H6.51828V6.15193C6.51828 5.97291 6.4558 5.80123 6.34459 5.67464C6.23338 5.54805 6.08254 5.47693 5.92526 5.47693H3.55317C3.39589 5.47693 3.24505 5.54805 3.13384 5.67464C3.02262 5.80123 2.96014 5.97291 2.96014 6.15193V16.7269H1.57642C1.41914 16.7269 1.2683 16.798 1.15709 16.9246C1.04588 17.0512 0.983398 17.2229 0.983398 17.4019C0.983398 17.581 1.04588 17.7526 1.15709 17.8792C1.2683 18.0058 1.41914 18.0769 1.57642 18.0769H17.3904C17.5477 18.0769 17.6985 18.0058 17.8097 17.8792C17.9209 17.7526 17.9834 17.581 17.9834 17.4019C17.9834 17.2229 17.9209 17.0512 17.8097 16.9246C17.6985 16.798 17.5477 16.7269 17.3904 16.7269H16.0067V10.6519Z" fill="#F8F8F8"/>
</svg>
