<svg width="19" height="19" viewBox="0 0 19 19" fill="none" xmlns="http://www.w3.org/2000/svg">
<path fill-rule="evenodd" clip-rule="evenodd" d="M11.2923 0.517415C10.9457 0.380615 10.5054 0.380615 9.62584 0.380615C8.74624 0.380615 8.30692 0.380615 7.95939 0.517415C7.498 0.699405 7.13073 1.05 6.93835 1.49212C6.85029 1.69282 6.81657 1.92772 6.80252 2.26882C6.79627 2.51596 6.72452 2.75749 6.59405 2.97056C6.46357 3.18364 6.27869 3.36122 6.05688 3.48652C5.83089 3.60721 5.57684 3.67115 5.31829 3.6724C5.05973 3.67366 4.80503 3.6122 4.57778 3.49372C4.26116 3.33352 4.03166 3.24532 3.80497 3.21652C3.30902 3.15395 2.80741 3.28203 2.40923 3.57292C2.11135 3.79071 1.89122 4.15432 1.45189 4.88062C1.01163 5.60691 0.792429 5.96961 0.742783 6.32511C0.677211 6.79851 0.812101 7.27731 1.11748 7.65621C1.25611 7.82901 1.45189 7.97392 1.75446 8.15571C2.20128 8.42301 2.48792 8.87842 2.48792 9.38062C2.48792 9.88282 2.20128 10.3382 1.75539 10.6046C1.45189 10.7873 1.25611 10.9322 1.11654 11.105C0.965803 11.2922 0.855162 11.5062 0.79101 11.7346C0.726857 11.9631 0.710466 12.2015 0.742783 12.4361C0.792429 12.7907 1.01163 13.1543 1.45189 13.8806C1.89216 14.6069 2.11135 14.9696 2.40923 15.1883C2.80641 15.479 3.3085 15.6068 3.80497 15.5447C4.03166 15.5159 4.26116 15.4277 4.57778 15.2675C4.80514 15.1489 5.06002 15.0873 5.31876 15.0886C5.57749 15.0898 5.83171 15.1539 6.05782 15.2747C6.51307 15.5267 6.78285 15.9902 6.80252 16.4924C6.81657 16.8344 6.85029 17.0684 6.93835 17.2691C7.12944 17.7101 7.49664 18.0611 7.95939 18.2438C8.30598 18.3806 8.74624 18.3806 9.62584 18.3806C10.5054 18.3806 10.9457 18.3806 11.2923 18.2438C11.7537 18.0618 12.1209 17.7112 12.3133 17.2691C12.4014 17.0684 12.4351 16.8344 12.4492 16.4924C12.4679 15.9902 12.7386 15.5258 13.1948 15.2747C13.4208 15.154 13.6748 15.0901 13.9334 15.0888C14.1919 15.0876 14.4466 15.149 14.6739 15.2675C14.9905 15.4277 15.22 15.5159 15.4467 15.5447C15.9432 15.6077 16.4453 15.479 16.8424 15.1883C17.1403 14.9705 17.3605 14.6069 17.7998 13.8806C18.2401 13.1543 18.4592 12.7916 18.5089 12.4361C18.5411 12.2015 18.5245 11.963 18.4602 11.7345C18.3959 11.5061 18.2851 11.2921 18.1342 11.105C17.9956 10.9322 17.7998 10.7873 17.4972 10.6055C17.0504 10.3382 16.7638 9.88282 16.7638 9.38062C16.7638 8.87842 17.0504 8.42302 17.4963 8.15662C17.7998 7.97392 17.9956 7.82901 18.1351 7.65621C18.2859 7.46907 18.3965 7.25507 18.4607 7.0266C18.5248 6.79813 18.5412 6.55971 18.5089 6.32511C18.4592 5.97051 18.2401 5.60691 17.7998 4.88062C17.3595 4.15432 17.1403 3.79162 16.8424 3.57292C16.4443 3.28203 15.9427 3.15395 15.4467 3.21652C15.22 3.24532 14.9905 3.33352 14.6739 3.49372C14.4465 3.61236 14.1917 3.67391 13.9329 3.67265C13.6742 3.67139 13.42 3.60737 13.1939 3.48652C12.9722 3.36111 12.7875 3.18348 12.6572 2.97041C12.5269 2.75734 12.4553 2.51587 12.4492 2.26882C12.4351 1.92682 12.4014 1.69282 12.3133 1.49212C12.2181 1.27318 12.0789 1.07441 11.9037 0.907167C11.7285 0.739925 11.5208 0.607485 11.2923 0.517415ZM9.62584 12.0806C11.1902 12.0806 12.4576 10.8719 12.4576 9.38062C12.4576 7.88932 11.1892 6.68061 9.62584 6.68061C8.06149 6.68061 6.79409 7.88932 6.79409 9.38062C6.79409 10.8719 8.06243 12.0806 9.62584 12.0806Z" fill="#F8F8F8"/>
</svg>
