<svg width="19" height="16" viewBox="0 0 19 16" fill="none" xmlns="http://www.w3.org/2000/svg">
<path d="M7.9663 1.20399C6.61164 0.557214 4.71819 0.240389 2.18321 0.229141C1.94414 0.225893 1.70975 0.295606 1.51132 0.428985C1.34844 0.539078 1.21511 0.687509 1.12305 0.861222C1.031 1.03493 0.983043 1.22861 0.9834 1.4252V12.1523C0.9834 12.8774 1.49932 13.4244 2.18321 13.4244C4.84791 13.4244 7.52087 13.6734 9.12186 15.1867C9.14377 15.2074 9.17129 15.2213 9.20103 15.2266C9.23077 15.2319 9.2614 15.2283 9.28912 15.2164C9.31684 15.2044 9.34043 15.1845 9.35696 15.1592C9.37348 15.1339 9.38222 15.1044 9.38207 15.0742V2.43454C9.38214 2.34926 9.3639 2.26497 9.32858 2.18734C9.29326 2.10972 9.24169 2.04059 9.17735 1.98461C8.81063 1.6711 8.40327 1.40852 7.9663 1.20399ZM18.4526 0.42786C18.2541 0.294813 18.0197 0.225489 17.7807 0.229141C15.2458 0.240389 13.3523 0.555714 11.9977 1.20399C11.5607 1.40815 11.1532 1.67021 10.7862 1.98311C10.722 2.03919 10.6706 2.10835 10.6353 2.18595C10.6001 2.26356 10.5819 2.34781 10.5819 2.43304V15.0734C10.5819 15.1024 10.5904 15.1308 10.6065 15.155C10.6225 15.1792 10.6453 15.1981 10.6721 15.2093C10.6989 15.2206 10.7283 15.2237 10.7568 15.2183C10.7853 15.2128 10.8116 15.1991 10.8323 15.1788C11.7948 14.2227 13.4839 13.4233 17.7822 13.4237C18.1005 13.4237 18.4056 13.2973 18.6306 13.0723C18.8556 12.8473 18.9821 12.5421 18.9821 12.2239V1.42558C18.9825 1.22859 18.9344 1.03453 18.8421 0.860525C18.7498 0.68652 18.616 0.537924 18.4526 0.42786Z" fill="#F8F8F8"/>
</svg>
