<svg width="22" height="24" viewBox="0 0 22 24" fill="none" xmlns="http://www.w3.org/2000/svg">
<path d="M8.6834 0.0139538L21.3334 2.26395C21.5211 2.29735 21.6903 2.38901 21.8119 2.52327C21.9335 2.65753 22 2.82604 22 2.99995V21C22 21.1739 21.9335 21.3424 21.8119 21.4766C21.6903 21.6109 21.5211 21.7026 21.3334 21.736L8.6834 23.986C8.5639 24.0072 8.44071 24.0042 8.32266 23.977C8.20462 23.9499 8.09465 23.8993 8.00064 23.8289C7.90664 23.7586 7.83093 23.6702 7.77895 23.5701C7.72697 23.47 7.70001 23.3606 7.7 23.25V0.749954C7.70001 0.639259 7.72697 0.529938 7.77895 0.429836C7.83093 0.329734 7.90664 0.241334 8.00064 0.170978C8.09465 0.100622 8.20462 0.0500549 8.32266 0.0229064C8.44071 -0.00424219 8.5639 -0.00729963 8.6834 0.0139538ZM12.1 11C11.8083 11 11.5285 11.1053 11.3222 11.2928C11.1159 11.4804 11 11.7347 11 12C11 12.2652 11.1159 12.5195 11.3222 12.7071C11.5285 12.8946 11.8083 13 12.1 13C12.3917 13 12.6715 12.8946 12.8778 12.7071C13.0841 12.5195 13.2 12.2652 13.2 12C13.2 11.7347 13.0841 11.4804 12.8778 11.2928C12.6715 11.1053 12.3917 11 12.1 11ZM6.6 2.49995V21.5H0.825C0.625639 21.4999 0.433024 21.4343 0.282777 21.3152C0.132529 21.1961 0.0348131 21.0315 0.00769997 20.852L0 20.75V3.24995C8.40719e-06 3.06872 0.0722072 2.89361 0.203244 2.75702C0.334281 2.62043 0.515291 2.5316 0.7128 2.50695L0.825 2.49995H6.6Z" fill="black"/>
</svg>
